#tb 0: 1/25
#media_type 0: video
#codec_id 0: rawvideo
#dimensions 0: 352x288
#sar 0: 0/1
0,          0,          0,        1,   304128, 0xf68fadfd
0,          1,          1,        1,   304128, 0xa6302d9a
0,          2,          2,        1,   304128, 0x758d165a
